# xmcd CD database file
#
# Track frame offsets:
#	150
#	16270
#	31799
#
# Disc length: 671 seconds
#
# Revision: 0
# Processed by: cddbd v1.5.1PL2 Copyright (c) Steve Scherf et al.
# Submitted via: CDex 1.51
#
DISCID=14029d03
DTITLE=ゲンキ de SKA !? - ゲンキの蕾
DYEAR=1900
DGENRE=Rock
TTITLE0=老いた願い
TTITLE1=Family Heart
TTITLE2=また・・・
EXTD=
EXTT0=
EXTT1=
EXTT2=
PLAYORDER=
